# xmcd CD database file
#
# Track frame offsets:
#	150
#	13624
#	27516
#	41423
#	61310
#	76752
#	91842
#	107108
#	121532
#	139131
#	157553
#	175381
#	190082
#	201408
#	212471
#	223612
#	239995
#	266356
#	282231
#	305857
#
# Disc length: 4356 seconds
#
# Revision: 0
# Processed by: cddbd v1.5.2PL0 Copyright (c) Steve Scherf et al.
# Submitted via: CDex 1.70beta2
#
DISCID=15110214
DTITLE=Lester Young - The Immortal Lester Young - Disc 2
DYEAR=2006
DGENRE=Jazz
TTITLE0=All Of Me
TTITLE1=Just you, Just Me
TTITLE2=Afternoon Of A Basie-ite
TTITLE3=Lester Leaps Again
TTITLE4=Blue Lester
TTITLE5=Jump, Lester, Jump
TTITLE6=Ghost Of A Chance
TTITLE7=These Foolish Things
TTITLE8=I Cover The Waterfront
TTITLE9=I've Found A New Baby
TTITLE10=I Want To Be Happy
TTITLE11=Lester's Be-Bop Boogie
TTITLE12=I'm Confessin'
TTITLE13=Blues'n'Bells
TTITLE14=Ding Dong
TTITLE15=I Can't Get Started
TTITLE16=Ad Lib Blues
TTITLE17=Almost Like Being In Love
TTITLE18=Pennies From Heaven
TTITLE19=That's All
EXTD=YEAR: 2006
EXTT0=
EXTT1=
EXTT2=
EXTT3=
EXTT4=
EXTT5=
EXTT6=
EXTT7=
EXTT8=
EXTT9=
EXTT10=
EXTT11=
EXTT12=
EXTT13=
EXTT14=
EXTT15=
EXTT16=
EXTT17=
EXTT18=
EXTT19=
PLAYORDER=
